<?xml version="1.0" encoding="utf-8"?>
<!-- Generator: Adobe Illustrator 24.3.0, SVG Export Plug-In . SVG Version: 6.00 Build 0)  -->
<svg version="1.1" id="Layer_1" xmlns="http://www.w3.org/2000/svg" xmlns:xlink="http://www.w3.org/1999/xlink" x="0px" y="0px"
	 viewBox="0 0 747.8 288" style="enable-background:new 0 0 747.8 288;" xml:space="preserve">
<style type="text/css">
	.st0{fill:#8DC63F;}
</style>
<g>
	<g>
		<path class="st0" d="M9.9,259c7.8,8.8,16.4,13.6,25.6,13.6c12,0,22.6-8.8,22.6-20.3c0-7.1-4.1-13.8-10.1-17
			c-28.1-15.7-42.4-22.3-42.4-43.8c0-19.3,15-32.5,33.6-32.5c13.4,0,23.5,6.5,33.9,16.6L62.9,186c-7.4-7.1-14.7-11.7-24.6-11.7
			c-10.1,0-18.4,7.1-18.4,16.4c0,6.2,3.9,13.1,9.4,16.4C57.4,223.3,73,229.5,73,251.6c0,19.1-14.7,36.2-36.9,36.2
			c-13.6,0-27.4-6.2-36.2-17.5L9.9,259z"/>
		<path class="st0" d="M222.7,223.7c0,34.8-26.9,64-63.8,64s-63.8-29.3-63.8-64c0-35,27.2-64.7,63.8-64.7S222.7,188.7,222.7,223.7z
			 M111.2,224c0,26.7,20,48.6,47.7,48.6c27.4,0,47.7-21.9,47.7-48.6c0-27.2-21.7-49.8-47.7-49.8C132.7,174.2,111.2,196.8,111.2,224z
			"/>
		<path class="st0" d="M370.6,260.1c-12,18.2-32.7,27.6-57.4,27.6c-40.3,0-67.3-29-67.3-63.1c0-35.9,28.1-65.4,68.4-65.4
			c23.5,0,44.9,9.7,56.2,28.6l-12.7,7.8c-10.8-14.3-25.8-21.2-44.2-21.2c-31.1,0-51.6,22.8-51.6,49.1c0,26.7,20.3,50,51.8,50
			c17.7,0,32.5-7.1,44-21.4L370.6,260.1z"/>
		<path class="st0" d="M419.4,127.9c0,7.1-6,13.1-13.1,13.1c-7.1,0-12.9-6-12.9-13.1c0-7.4,6-12.9,12.9-12.9
			C413.4,115,419.4,120.8,419.4,127.9z M398.7,165.5h15.7v122.3h-15.7V165.5z"/>
		<path class="st0" d="M553.2,162.5h15.4v122.3h-15.4v-21c-13.4,16.1-30.2,24-49.3,24c-35.7,0-62.6-29.7-62.6-64.5
			c0-34.8,27.6-64,63.1-64c19.8,0,36.6,8.5,48.8,25.6V162.5z M457.4,223.7c0,26.5,20.7,49.8,48.1,49.8c25.1,0,48.8-18.9,48.8-49.3
			c0-28.3-21.2-49.8-48.6-49.8C477.7,174.4,457.4,197.5,457.4,223.7z"/>
		<path class="st0" d="M601.9,118.2h15.7v169.5h-15.7V118.2z"/>
	</g>
	<g>
		<path class="st0" d="M660.7,83.9c1.4,4.1,4.4,7.2,8.1,9.5c7.9,4.8,18,6.2,26.9,8c9.5,1.9,19,3.6,28.5,5.9c7.6,1.9,20.8,4,23.2-6.4
			c1.9-7.1-2.6-15.7-9.7-17.8c-10.9-3.7-22.9-5.1-34-7.8c-3.8-1-8.2-2.5-10.5-6c-1.9-3.1-1.5-7.3-0.7-10.7
			c1.7-6.9,4.9-13.3,8.1-19.6c3.3-6.4,6.8-12.6,10.4-18.9c0.8-1.4,1.6-2.9,2.4-4.3c1.5-2.7,1.2-6.5-1.7-8.2
			c-3.8-2.5-8.9-0.4-11.2,3.1c-11.2,17.3-24.7,33.5-34.8,51.5c-3.4,6.2-7.3,13.6-5.3,20.8C660.5,83.4,660.6,83.6,660.7,83.9z"/>
		<path class="st0" d="M705.1,117.3c-8.6-5.4-17.3-10.8-26.6-14.6c-3.9-1.6-8.5-1.9-12.2,0.2c-3.3,1.8-5.2,5.4-6.3,8.8
			c-4.3,13.7-5.3,28.4-7,42.6c-0.4,3.9,0.3,7.7,3.4,10.4c3.2,2.5,7.8,1.7,10.9-0.4c3.3-2,4.8-5.7,5.4-9.4c1.1-6.2,2-12.4,2.7-18.6
			c0.5-3.7,1.1-7.8,3.8-10.7c2.7-2.3,6.8-2,10-1.2c10.3,2.7,20.1,8.1,29.5,12.5c1.7,0.8,3.3,1.4,5.1,0.4c3.1-1.3,2.7-5.6,0.9-7.8
			c-2.3-2.9-7.3-4.8-10.5-6.7C711.2,121.1,708.2,119.2,705.1,117.3z"/>
		<path class="st0" d="M681.1,139.6c1,3.2,4.1,5.4,7.4,5.1c3.4-0.3,5.8-2.9,6.6-6.1c0.3-2.1-0.1-4.8-1.9-6.2c-1.6-1.2-3.8-2.7-6-2.5
			C683,130,679.3,135.5,681.1,139.6z"/>
		<path class="st0" d="M700.5,57.6c-1,5.6,3.1,10.7,8.6,11.5c4.9,0.8,9.9-2.8,11-7.6c1.1-4.9-1.6-10.2-6.5-11.7
			C708,47.6,701.2,51.5,700.5,57.6z"/>
		<path class="st0" d="M620.3,71.3c2.2,0.8,4.4,1.5,6.5,2.3c6.7,2.3,14.4,4.5,21.3,1.7c7.8-3.1,9.4-11.2,9.5-18.8
			c0-11.3-0.9-22.6-2.1-33.9c-0.8-7.4-0.4-24-12-22.5c-5.9,0.7-11.1,6-11.3,12c-0.3,9.2,0.9,18.6,1.6,27.8c0.2,3.1,0.4,6.3-0.7,9.1
			c-2.9,7.3-13.5,5.5-19.6,4.8c-9.8-1.4-19.2-3.7-28.9-6c-2.2-0.5-4.2-0.5-5.9,1.3c-6.9,6.7,7,11,11,12.2c3.8,1.2,7.6,2.3,11.3,3.5
			C607.5,66.8,613.9,69.1,620.3,71.3z"/>
		<path class="st0" d="M627.1,42.6c2.4-5-1.7-11-7.1-11.2c-4.8-0.5-8.7,3.5-9,8.1c0,4,2.9,8,7,8.5C622.1,48.5,625.6,46.6,627.1,42.6
			z"/>
	</g>
</g>
</svg>
